<svg width="318" height="33" viewBox="0 0 318 33" fill="none" xmlns="http://www.w3.org/2000/svg">
<g clip-path="url(#clip0_1_2)">
<path d="M318 0H0V32.0134H318V0Z" fill="white"/>
<path d="M49.555 17.8907C49.5051 17.8907 49.4719 17.8575 49.4719 17.8076L49.422 14.6254L48.3082 17.8202C48.2874 17.8658 48.2624 17.8866 48.2084 17.8866H47.905C47.8552 17.8866 47.8261 17.8658 47.8094 17.8202L46.6748 14.5547L46.6291 17.8035C46.6291 17.8534 46.5958 17.8866 46.546 17.8866H46.2384C46.1885 17.8866 46.1553 17.8534 46.1553 17.8035L46.2716 14.1891C46.2716 14.131 46.2966 14.106 46.3548 14.106H46.8535C46.9034 14.106 46.9325 14.1268 46.9532 14.1726L48.0546 17.3133L49.156 14.1726C49.1768 14.1268 49.2017 14.106 49.2558 14.106H49.7462C49.8044 14.106 49.8293 14.131 49.8293 14.1891L49.9374 17.8035C49.9374 17.8534 49.9083 17.8866 49.8543 17.8866H49.555V17.8907Z" fill="#304881"/>
<path d="M51.7121 16.7234L51.3172 17.8243C51.2965 17.87 51.2716 17.8907 51.2175 17.8907H50.9141C50.8518 17.8907 50.8268 17.8534 50.8476 17.7952L52.1859 14.1767C52.2066 14.131 52.2316 14.1102 52.2856 14.1102H52.6431C52.693 14.1102 52.7262 14.131 52.7428 14.1767L54.0811 17.7952C54.1018 17.8534 54.0769 17.8907 54.0146 17.8907H53.7112C53.6613 17.8907 53.6322 17.87 53.6115 17.8243L53.2166 16.7234H51.7121ZM52.4768 14.6752H52.4519L51.8659 16.3079H53.067L52.4768 14.6752Z" fill="#304881"/>
<path d="M56.3379 14.1144C57.5016 14.1144 58.1333 14.8456 58.1333 15.9507C58.1333 17.0682 57.4933 17.8949 56.3295 17.8949H55.0661C55.0162 17.8949 54.983 17.8616 54.983 17.8118L55.0038 14.1975C55.0038 14.1476 55.037 14.1144 55.0869 14.1144H56.3379ZM56.2963 17.4795C57.1524 17.4795 57.6762 16.9061 57.6762 15.9963C57.6762 15.0574 57.1608 14.5132 56.3046 14.5132H55.4568L55.4734 17.4753H56.2963V17.4795Z" fill="#304881"/>
<path d="M61.5289 17.4753C61.5787 17.4753 61.612 17.5086 61.612 17.5584V17.8076C61.612 17.8575 61.5787 17.8907 61.5289 17.8907H59.2388C59.189 17.8907 59.1557 17.8575 59.1557 17.8076L59.1765 14.1933C59.1765 14.1435 59.2097 14.1102 59.2596 14.1102H61.5205C61.5745 14.1102 61.6036 14.1435 61.6036 14.1933V14.4425C61.6036 14.4924 61.5745 14.5256 61.5205 14.5256H59.6295L59.6378 15.7014H61.2546C61.3086 15.7014 61.3376 15.7346 61.3376 15.7845V16.0379C61.3376 16.0877 61.3086 16.121 61.2546 16.121H59.6378L59.6461 17.4711H61.5289V17.4753Z" fill="#304881"/>
<path d="M65.4813 14.1144C66.645 14.1144 67.2768 14.8456 67.2768 15.9507C67.2768 17.0682 66.6368 17.8949 65.4731 17.8949H64.2096C64.1597 17.8949 64.1264 17.8616 64.1264 17.8118L64.1472 14.1975C64.1472 14.1476 64.1805 14.1144 64.2304 14.1144H65.4813ZM65.4398 17.4795C66.2959 17.4795 66.8196 16.9061 66.8196 15.9963C66.8196 15.0574 66.3043 14.5132 65.4481 14.5132H64.6002L64.6169 17.4753H65.4398V17.4795Z" fill="#304881"/>
<path d="M69.1055 17.8076C69.1055 17.8575 69.0722 17.8907 69.0224 17.8907H68.6982C68.6483 17.8907 68.6151 17.8575 68.6151 17.8076L68.6317 14.1933C68.6317 14.1435 68.6649 14.1102 68.7148 14.1102H69.0016C69.0556 14.1102 69.0847 14.1435 69.0847 14.1933L69.1055 17.8076Z" fill="#304881"/>
<path d="M73.8642 16.0628C73.914 16.0628 73.9517 16.0961 73.9517 16.1625C73.9311 17.2136 73.241 17.9614 72.1974 17.9614C71.1836 17.9614 70.4645 17.1513 70.4645 16.0047C70.4645 14.8497 71.2249 14.052 72.2472 14.052C72.9579 14.052 73.5363 14.4425 73.7732 15.045C73.7981 15.1032 73.7689 15.1364 73.7106 15.1364L73.4281 15.1405C73.3819 15.1405 73.3492 15.1239 73.3278 15.0824C73.0952 14.6877 72.6925 14.4551 72.2145 14.4551C71.4746 14.4551 70.9176 15.0117 70.9176 15.9714C70.9176 16.9311 71.4618 17.5459 72.26 17.5459C72.854 17.5459 73.357 17.1596 73.4779 16.4741H72.5261C72.4763 16.4741 72.4428 16.4409 72.4428 16.391V16.1417C72.4428 16.0919 72.4763 16.0586 72.5261 16.0586H73.8642V16.0628Z" fill="#304881"/>
<path d="M75.8263 17.8076C75.8263 17.8575 75.7929 17.8907 75.7431 17.8907H75.4187C75.3689 17.8907 75.3354 17.8575 75.3354 17.8076L75.3525 14.1933C75.3525 14.1435 75.3852 14.1102 75.435 14.1102H75.7224C75.7765 14.1102 75.8049 14.1435 75.8049 14.1933L75.8263 17.8076Z" fill="#304881"/>
<path d="M79.8948 14.4467C79.8948 14.4965 79.8614 14.5298 79.8116 14.5298H78.6769L78.694 17.8118C78.694 17.8616 78.6605 17.8949 78.6107 17.8949H78.2863C78.2323 17.8949 78.2031 17.8616 78.2031 17.8118L78.2202 14.5298H77.0812C77.0314 14.5298 76.998 14.4965 76.998 14.4467V14.1975C76.998 14.1476 77.0314 14.1144 77.0812 14.1144H79.8116C79.8614 14.1144 79.8948 14.1476 79.8948 14.1975V14.4467Z" fill="#304881"/>
<path d="M81.0132 16.7234L80.6183 17.8243C80.597 17.87 80.5721 17.8907 80.518 17.8907H80.215C80.1524 17.8907 80.1275 17.8534 80.1481 17.7952L81.487 14.1767C81.5076 14.131 81.5325 14.1102 81.5866 14.1102H81.9437C81.9935 14.1102 82.0269 14.131 82.0433 14.1767L83.3822 17.7952C83.4028 17.8534 83.3779 17.8907 83.3153 17.8907H83.0122C82.9617 17.8907 82.9333 17.87 82.9119 17.8243L82.5171 16.7234H81.0132ZM81.7772 14.6752H81.7523L81.1668 16.3079H82.3677L81.7772 14.6752Z" fill="#304881"/>
<path d="M86.686 17.4753C86.74 17.4753 86.7692 17.5086 86.7692 17.5584V17.8076C86.7692 17.8575 86.74 17.8907 86.686 17.8907H84.3625C84.3127 17.8907 84.28 17.8575 84.28 17.8076L84.3006 14.1933C84.3006 14.1435 84.3298 14.1102 84.3838 14.1102H84.6705C84.7203 14.1102 84.7538 14.1435 84.7538 14.1933L84.7744 17.4753H86.686Z" fill="#304881"/>
<path d="M92.0557 16.7856C92.0557 17.4088 91.5861 17.8949 90.8591 17.8949H89.2627C89.2129 17.8949 89.1794 17.8616 89.1794 17.8118L89.2008 14.1975C89.2008 14.1476 89.2335 14.1144 89.2833 14.1144H90.7047C91.4076 14.1144 91.8437 14.534 91.8437 15.1073C91.8437 15.4189 91.7192 15.7014 91.4908 15.8925C91.8565 16.067 92.0557 16.391 92.0557 16.7856ZM89.6575 15.7387H90.7218C91.1372 15.7387 91.3827 15.5102 91.3827 15.1364C91.3827 14.7625 91.1081 14.5174 90.6506 14.5174H89.6532L89.6575 15.7387ZM90.8256 17.4878C91.3201 17.4878 91.5947 17.2261 91.5947 16.8272C91.5947 16.4201 91.2909 16.1501 90.763 16.1501H89.6618L89.666 17.4878H90.8256Z" fill="#304881"/>
<path d="M94.5122 17.8076C94.5122 17.8575 94.4787 17.8907 94.4289 17.8907H94.113C94.059 17.8907 94.0298 17.8575 94.0298 17.8076L94.0384 16.2996L92.8332 14.2099C92.7998 14.1518 92.8247 14.1102 92.8908 14.1102H93.2153C93.2608 14.1102 93.2942 14.1268 93.3148 14.1684L94.2624 15.8094H94.2959L95.2477 14.1684C95.2684 14.1268 95.3018 14.1102 95.3473 14.1102H95.6426C95.7087 14.1102 95.7301 14.1518 95.7009 14.2099L94.5079 16.2996L94.5122 17.8076Z" fill="#304881"/>
<path d="M198.069 8.4726H106.385V26.2121H198.069V8.4726Z" fill="white"/>
<path d="M196.656 9.75221H107.931V24.5337H196.656V9.75221Z" fill="#304881"/>
<path d="M196.656 9.75221H122.718V24.5337H196.656V9.75221Z" fill="#304881"/>
<path d="M127.419 20.641V13.6449H129.721V16.0046H131.878V13.6449H134.185V20.6368H131.878V17.924H129.721V20.6368H127.419V20.641Z" fill="white"/>
<path d="M137.826 15.3856H138.424C138.852 15.3856 139.168 15.4313 139.368 15.5185C139.517 15.5809 139.638 15.6806 139.741 15.826C139.842 15.9672 139.916 16.1501 139.975 16.3744C140.029 16.5987 140.054 16.8355 140.054 17.089C140.054 17.5002 139.995 17.8409 139.874 18.1151C139.759 18.3934 139.588 18.5928 139.372 18.7133C139.156 18.838 138.832 18.8961 138.403 18.8961L137.821 18.9003L137.826 15.3856ZM138.715 20.641C139.26 20.641 139.709 20.5953 140.074 20.4998C140.444 20.4042 140.747 20.2754 140.976 20.1258C141.209 19.9721 141.425 19.7644 141.616 19.5068C141.812 19.2409 141.977 18.9044 142.11 18.489C142.248 18.0777 142.31 17.6166 142.31 17.089C142.31 16.3204 142.164 15.6681 141.866 15.128C141.562 14.5963 141.155 14.2141 140.631 13.9856C140.111 13.7571 139.488 13.6449 138.765 13.6449H135.565V20.6368L138.715 20.641Z" fill="white"/>
<path d="M143.37 20.641V13.6449H148.827V15.369H145.639V16.4907H148.187V18.1691H145.639V20.6368H143.37V20.641Z" fill="white"/>
<path d="M156.536 16.3204H154.363C154.322 15.9714 154.197 15.6972 153.985 15.502C153.773 15.3109 153.507 15.2153 153.179 15.2153C152.772 15.2153 152.439 15.3731 152.185 15.6847C151.928 16.0005 151.798 16.5115 151.798 17.2136C151.798 17.7038 151.857 18.0736 151.965 18.3228C152.073 18.5804 152.227 18.7673 152.422 18.892C152.617 19.0166 152.858 19.0748 153.154 19.0748C153.507 19.0748 153.79 18.9875 153.993 18.784C154.205 18.5928 154.33 18.3062 154.367 17.924H156.583C156.533 18.3602 156.445 18.7217 156.321 19.0166C156.2 19.3158 155.984 19.6065 155.689 19.9015C155.394 20.2006 155.04 20.4291 154.633 20.5912C154.226 20.7532 153.756 20.8279 153.216 20.8279C152.684 20.8279 152.19 20.749 151.741 20.5953C151.288 20.4332 150.905 20.2089 150.602 19.9223C150.29 19.6273 150.049 19.295 149.875 18.9211C149.625 18.3976 149.508 17.8202 149.508 17.1721C149.508 16.632 149.596 16.121 149.774 15.6556C149.949 15.1904 150.194 14.7957 150.506 14.4758C150.818 14.16 151.159 13.9191 151.537 13.7612C152.015 13.5577 152.543 13.4579 153.129 13.4579C153.64 13.4579 154.11 13.5327 154.559 13.6823C155.003 13.8319 155.369 14.052 155.651 14.347C155.938 14.6378 156.159 14.9743 156.317 15.3524C156.429 15.6183 156.499 15.9423 156.536 16.3204Z" fill="white"/>
<path d="M163.909 15.2195C164.234 15.2195 164.446 15.2319 164.55 15.2651C164.683 15.3026 164.795 15.3814 164.874 15.4812C164.957 15.5851 164.999 15.7055 164.999 15.8468C164.999 16.0254 164.928 16.1708 164.791 16.283C164.645 16.3993 164.4 16.4533 164.042 16.4533H163.178V15.2195H163.909ZM164.487 20.641C165.032 20.641 165.414 20.6161 165.643 20.5662C165.863 20.5163 166.092 20.4332 166.325 20.3252C166.553 20.2089 166.727 20.0967 166.84 19.9721C167.018 19.8059 167.151 19.6065 167.247 19.3614C167.343 19.1205 167.392 18.8421 167.392 18.5471C167.392 18.1234 167.289 17.7786 167.077 17.4961C166.865 17.2094 166.582 17.0225 166.221 16.9186C166.831 16.5364 167.131 16.042 167.131 15.4396C167.131 14.8164 166.86 14.3429 166.332 14.0188C165.926 13.7695 165.285 13.6449 164.421 13.6449H160.951V20.6368L164.487 20.641ZM164.118 17.7121C164.57 17.7121 164.866 17.7661 165.015 17.8824C165.157 17.9946 165.231 18.1525 165.231 18.3644C165.231 18.5762 165.157 18.7424 165.007 18.8587C164.866 18.9834 164.566 19.0374 164.121 19.0374H163.182V17.7121H164.118Z" fill="white"/>
<path d="M172.446 18.2896H170.984L171.706 15.7471L172.446 18.2896ZM170.294 20.641L170.56 19.7228H172.85L173.116 20.641H175.406L172.895 13.649H170.555L168.045 20.641H170.294Z" fill="white"/>
<path d="M176.374 20.641V13.6449H178.518L180.938 17.388V13.6449H183.14V20.6368H180.95L178.581 16.9851V20.6368H176.374V20.641Z" fill="white"/>
<path d="M184.674 20.641V13.6449H186.901V15.9506L188.984 13.6449H191.685L189.121 16.2788L191.951 20.641H189.196L187.513 17.8575L186.901 18.4599V20.641H184.674Z" fill="white"/>
<path d="M122.718 9.75221H107.931V24.5337H122.718V9.75221Z" fill="#BE292B"/>
<path d="M120.133 12.3404H110.52V21.9497H120.133V12.3404Z" fill="white"/>
<path d="M116.064 9.75221H114.585V24.5337H116.064V9.75221Z" fill="white"/>
<path d="M122.718 16.4035H107.931V17.8825H122.718V16.4035Z" fill="white"/>
<path d="M117.54 14.9286H113.105V19.3614H117.54V14.9286Z" fill="#304881"/>
<path d="M213.01 10.0679V24.1265H218.11V15.1654H223.214V24.1265H228.268V10.0679H213.01Z" fill="#304881"/>
<path d="M231.485 8.53493C233.62 6.39955 236.194 5.33186 239.211 5.33186C242.228 5.33186 244.801 6.39124 246.937 8.51415C249.073 10.6371 250.142 13.2045 250.142 16.2206C250.142 19.2368 249.073 21.8125 246.937 23.9438C244.801 26.0791 242.228 27.1469 239.211 27.1469C236.194 27.1469 233.617 26.0791 231.485 23.9438C229.348 21.8084 228.28 19.2368 228.28 16.2206C228.284 13.2045 229.353 10.6454 231.485 8.53493ZM235.092 20.3544C236.231 21.4885 237.606 22.0535 239.211 22.0535C240.815 22.0535 242.191 21.4802 243.33 20.3336C244.468 19.1869 245.042 17.816 245.042 16.2206C245.042 14.6254 244.472 13.2627 243.33 12.1285C242.187 10.9943 240.815 10.4293 239.211 10.4293C237.606 10.4293 236.231 10.9985 235.092 12.1285C233.949 13.2627 233.38 14.6295 233.38 16.2206C233.38 17.816 233.953 19.1953 235.092 20.3544Z" fill="#BF242A"/>
<path d="M239.211 19.8392L235.607 16.2373L239.211 12.6353L242.814 16.2373L239.211 19.8392Z" fill="#304881"/>
<path d="M243.583 15.1945L241.218 12.8306L243.583 10.4668L245.948 12.8306L243.583 15.1945Z" fill="#304881"/>
<path d="M244.805 11.0027L242.914 9.11237L244.805 7.22215L246.696 9.11237L244.805 11.0027Z" fill="white"/>
<path d="M247.681 8.68865L246.696 7.70406L247.681 6.71944L248.666 7.70406L247.681 8.68865Z" fill="#304881"/>
<path d="M248.238 6.83576L247.253 5.85117L248.238 4.86656L249.223 5.85117L248.238 6.83576Z" fill="#304881"/>
<path d="M260.714 21.4387L255.848 24.1391L249.468 12.5357L253.932 10.0721L257.427 16.4201L260.714 14.6046L263.923 16.3744L267.41 10.0804L271.844 12.5731L265.436 24.1556L260.714 21.4387Z" fill="#304881"/>
<path d="M244.684 14.1767L246.031 12.8306L243.583 10.3837L242.523 11.4431C242.805 11.6425 243.076 11.8668 243.333 12.1244C243.953 12.7392 244.402 13.4247 244.684 14.1767Z" fill="white"/>
</g>
<defs>
<clipPath id="clip0_1_2">
<rect width="318" height="32.0134" fill="white"/>
</clipPath>
</defs>
</svg>
