<svg xmlns="http://www.w3.org/2000/svg" width="27" height="27" viewBox="0 0 27 27"><g transform="translate(-909.525 -133.525)"><circle cx="13.5" cy="13.5" r="13.5" transform="translate(909.525 133.525)" fill="#e3f4ff"/><g transform="translate(917.465 139.389)" style="isolation:isolate"><path d="M141.155,9.951a2.483,2.483,0,0,0,2.479-2.488l.008-4.975a2.488,2.488,0,0,0-4.975,0V7.463A2.49,2.49,0,0,0,141.155,9.951Z" transform="translate(-135.545 0)" fill="#2c5295"/><path d="M63.191,192a4.248,4.248,0,0,1-8.5,0H53.333a5.718,5.718,0,0,0,4.809,5.572v2.72h1.6v-2.72A5.718,5.718,0,0,0,64.553,192Z" transform="translate(-53.333 -185.065)" fill="#2c5295"/></g></g></svg>